<svg width="22" height="21" viewBox="0 0 22 21" fill="none" xmlns="http://www.w3.org/2000/svg">
<path d="M4.22452 7.60622L4.22455 7.71965C4.22256 7.77445 4.22117 7.8294 4.22038 7.8845V7.69757M4.22452 7.60622C4.42519 3.7099 7.6469 0.614141 11.5929 0.614141C15.6683 0.614141 18.9712 3.91711 18.9712 7.99214V11.4107C19.5814 11.4138 20.1337 11.9128 20.5335 12.5618C20.9345 13.2129 21.1831 14.0168 21.1831 14.6284C21.1831 15.852 20.1881 16.8453 18.9625 16.8453H15.4172C15.401 17.7492 14.9079 18.6856 14.1935 19.4C13.467 20.1265 12.5108 20.6241 11.5929 20.6241C10.6749 20.6241 9.71879 20.1265 8.99229 19.4C8.2779 18.6856 7.78478 17.7492 7.76853 16.8453H4.22326C2.99692 16.8453 2.00263 15.8533 2.00263 14.6284C2.00263 14.017 2.25079 13.2131 2.65167 12.5621C3.0513 11.913 3.60387 11.4141 4.21538 11.4114L4.21461 7.99214C4.21461 7.89348 4.21655 7.79528 4.22038 7.69757M4.22452 7.60622L4.22038 -10.8439V7.69757M4.22452 7.60622C4.22296 7.63662 4.22158 7.66707 4.22038 7.69757M17.4865 7.99214V11.4157H9.48427L17.4865 11.42C17.4888 12.2373 18.1492 12.896 18.9654 12.896C19.0641 12.896 19.1597 12.9772 19.2478 13.1082C19.3357 13.2389 19.4151 13.4175 19.4819 13.6092C19.6156 13.9925 19.6985 14.4262 19.6985 14.6284C19.6985 15.0314 19.3687 15.3607 18.9625 15.3607H4.22326C3.8161 15.3607 3.48728 15.0326 3.48728 14.6284C3.48728 14.426 3.56987 13.9923 3.70342 13.609C3.77018 13.4174 3.84955 13.2388 3.93749 13.1082C4.02566 12.9772 4.12136 12.896 4.22038 12.896C5.03634 12.896 5.69927 12.2327 5.69927 11.4157V7.99214C5.69927 4.73634 8.33735 2.0988 11.5929 2.0988C14.8484 2.0988 17.4865 4.73705 17.4865 7.99214ZM9.25366 16.8453H13.9321C13.913 17.3416 13.5885 17.9054 13.1437 18.3502C12.6851 18.8088 12.1 19.1395 11.5929 19.1395C11.0858 19.1395 10.5007 18.8088 10.0421 18.3502C9.5973 17.9054 9.27278 17.3416 9.25366 16.8453Z" fill="#84859E" stroke="#84859E" stroke-width="0.01"/>
<circle cx="17.928" cy="4.36914" r="3.75" fill="#DA5F4B"/>
</svg>
